<svg 
  width="100" 
  height="100" 
  viewBox="0 0 100 100" 
  fill="none" 
  xmlns="http://www.w3.org/2000/svg"
  >
  <path 
    fill-rule="evenodd" 
    clip-rule="evenodd" 
    d="M5 0H28.0007V2H5C3.34315 2 2 3.34315 2 5V27.0007H0V5C0 2.23858 2.23858 0 5 0ZM0 72.0007V95C0 97.7614 2.23858 100 5 100H28.0007V98H5C3.34315 98 2 96.6569 2 95V72.0007H0ZM98 72.0007V95C98 96.6569 96.6569 98 95 98H73.0007V100H95C97.7614 100 100 97.7614 100 95V72.0007H98ZM100 27.0007V5C100 2.23858 97.7614 0 95 0H73.0007V2H95C96.6569 2 98 3.34315 98 5V27.0007H100Z" 
    fill="#FF8DD4"
  />
</svg>
